PathFileType	4	(X/Y/Z)	trial_0_0-299.trc
DataRate	CameraRate	NumFrames	NumMarkers	Units	OrigDataRate	OrigDataStartFrame	OrigNumFrames
60	60	9	21	m	60	0	299
Frame#	Time	RHip			RKnee			RAnkle			RBigToe			RSmallToe			RHeel			LHip			LKnee			LAnkle			LBigToe			LSmallToe			LHeel			Neck			Head			Nose			RShoulder			RElbow			RWrist			LShoulder			LElbow			LWrist		
		X1	Y1	Z1	X2	Y2	Z2	X3	Y3	Z3	X4	Y4	Z4	X5	Y5	Z5	X6	Y6	Z6	X7	Y7	Z7	X8	Y8	Z8	X9	Y9	Z9	X10	Y10	Z10	X11	Y11	Z11	X12	Y12	Z12	X13	Y13	Z13	X14	Y14	Z14	X15	Y15	Z15	X16	Y16	Z16	X17	Y17	Z17	X18	Y18	Z18	X19	Y19	Z19	X20	Y20	Z20	X21	Y21	Z21
1	0.016666666666666666	1.3698025676554997	1.1654030186744075	0.4512735254366724	1.8119800515691793	1.0793105751611731	0.4372988698700518	2.155768610054008	0.9302014324403414	0.353468067858095	2.420503740717604	1.1250778346702968	0.33445108536127927	2.4018241709370156	1.1012073928102337	0.43065538667093684	2.1470240618699004	0.870342936192646	0.3377708848875067	1.375039166955043	1.220005158104135	0.17450748885558476	1.7817624635073979	1.0634283498601826	0.1769449464147545	2.0680048224262633	0.8227339057178342	0.173168087968957	2.430308836799749	1.1663147774185372	0.16170829601661904	2.3076668119142427	1.0385888349753856	0.09994187012194906	2.0634052454638874	0.7090710333152119	0.18473962978046124	0.6568657899782833	1.1262267543546323	0.3626543446990403	0.32110205792939844	1.3567966891879213	0.4025405713570253	0.5500947094608196	1.5697822869399551	0.40801694515472586	0.7459648562291582	1.1343222207100123	0.5441308326846012	1.0882619721086482	1.1707493777104359	0.584015808509881	1.3935184211057805	1.458120843884955	0.4225967585962356	0.7198614654494787	1.1398336322545206	0.16524478923649227	1.0798875631811622	1.1970135360265204	0.08434828553232414	1.4356485638372711	1.612207285719325	0.2718444132646002
2	0.03333333333333333	1.3695121155896337	1.1645335962389693	0.4516159510650496	1.798964948808431	1.0650247286286654	0.44199860347796166	2.1481076191819657	0.9260285140096483	0.35452212256049676	2.444668291909269	1.1698749106735433	0.3425674776356267	2.3940889750908085	1.0838246303333523	0.43505092577106635	2.136613934624269	0.8537278126060339	0.34107586006031443	1.3755281060950695	1.2235011468662311	0.17387759574277775	1.7837309063465496	1.0809963925537809	0.17361164781092137	2.0811907256109072	0.8577313778638654	0.1794843219939942	2.454875423949529	1.2062711803348996	0.16870405888090845	2.300217506031173	1.0381457586663223	0.09997739248343031	2.064923165524712	0.7109969348609866	0.18411503290695774	0.6569838357457648	1.1276051129338178	0.36233014956748283	0.320986937190924	1.3571894604551522	0.40299723707301593	0.5500367018023082	1.572510094180597	0.40770533861684377	0.7414571199360508	1.1007581559627098	0.5347301345604648	1.088090273858889	1.1687052903969357	0.5841551888645151	1.3992809517353608	1.4723856464587166	0.4208402436450666	0.7203641815874654	1.1378472825377548	0.16540246591439367	1.0841725566700042	1.2179271086448158	0.08045064779618613	1.4408027942649098	1.6344262287522873	0.26538299284364686
3	0.05	1.3693686877503704	1.1638916523651857	0.45176268158055904	1.808944889922382	1.0636417184304099	0.44065327121493447	2.147514322727493	0.9250719927315727	0.35495710717166706	2.419261215101523	1.1232866810150244	0.3354157799050005	2.4053398011153435	1.0949431430643155	0.43307589971181404	2.1369513123357375	0.8537843315700134	0.3409810210650066	1.3752247309599837	1.2222894447649761	0.17417771095009427	1.783520707965299	1.0777845406305033	0.1740954431900659	2.082419260814372	0.8706062091600687	0.17387954142122478	2.4547811501885866	1.204653391627693	0.16844377320147183	2.3013127337342594	1.0383591174832656	0.09914047980862833	2.073110244355486	0.7277426067212591	0.1790299358308036	0.6567338821671921	1.1272448525188516	0.36262409463532014	0.3206379363068378	1.3574941996014067	0.40333693328462716	0.5507619512286352	1.5872046885377296	0.402776138692784	0.7414655926074645	1.1010628947177719	0.5347415132363526	1.0880855210892648	1.1688947996679555	0.5840892465336452	1.3995709464314228	1.473163864719978	0.4204629114641759	0.7203798463925631	1.138203845796775	0.1653038262869275	1.0843927385979097	1.2171462864438678	0.08024881121264807	1.4409805531226125	1.6366537499898632	0.2654237949375675
4	0.06666666666666667	1.3696118100137606	1.166918019698183	0.4514264059838053	1.8006029627029836	1.0669660754710022	0.43987599749843753	2.144867994326943	0.9269332322247228	0.355554888965627	2.440083424279695	1.1604984928848487	0.3442957032343457	2.3980877599593433	1.0791375284012747	0.43567005619279436	2.1372300673669398	0.8538742023187473	0.34099695157173293	1.375346666605592	1.225844901274311	0.17366604721223908	1.7845039037310322	1.08071857522527	0.17340239926856035	2.074937145451089	0.8561915135659228	0.17849471110129145	2.442911012172578	1.1855475778494284	0.17220788431485592	2.3088871586496396	1.0414091074653329	0.09965308736437661	2.073566988655196	0.7278886754442903	0.1789126520149989	0.6566488111110153	1.1277994838045329	0.3625618906943004	0.32088755528876955	1.3558541239947741	0.403556727815626	0.5485260900544482	1.5769518530223139	0.40170475564901703	0.7459508768656202	1.1351710788646463	0.544077529333163	1.0880359096600971	1.169269381614246	0.5844546490943533	1.401906627783573	1.4674468812608576	0.4195488497511107	0.7201354856453185	1.1381362518512903	0.1655259399328934	1.0777676962008684	1.2020840244825204	0.08459482984872478	1.4406600240231289	1.6332789307626092	0.2656494195877306
5	0.08333333333333333	1.3702029750970002	1.1678055419511548	0.45090620449148033	1.8065837333702002	1.0667439770892988	0.4406696177973066	2.15169375629187	0.9291381533868976	0.35475443280511665	2.4500698251753072	1.1659574106875097	0.3428750091050877	2.398826705952315	1.0800834724723452	0.4351245313300435	2.1368983945431377	0.8526081563425048	0.34112115071715027	1.375667981064182	1.22556875211634	0.17353637945362727	1.7921269873864978	1.085793252418978	0.1719371296553908	2.086566074565335	0.8761196041744586	0.1752479945613587	2.458167461326305	1.1888734832942558	0.17274281017396026	2.3159781069606002	1.0409882386446838	0.09924987373333997	2.06543729109123	0.7311700447507787	0.17985691180083155	0.6567450154780035	1.1276667261996198	0.3625374396488918	0.3206373752800673	1.3581678307683376	0.4030965968191094	0.544815773642496	1.582774042318415	0.4024789474456775	0.7415520727273534	1.1005001316313479	0.5347666369604388	1.0879220300966734	1.1685508751368765	0.5846776802859782	1.3925614506972595	1.4506543487808734	0.4229139820399774	0.720209141609485	1.1372606206767888	0.1656941317623061	1.0831435388098754	1.2116962658069632	0.07875785730379667	1.4367519698067555	1.6166365083391583	0.2706934170207891
6	0.1	1.3703215984510309	1.1669138739454263	0.45092248322778566	1.8143227342165646	1.0877948176662464	0.4366754012902962	2.152250693420682	0.9303203406418296	0.35450096912829915	2.448821470788938	1.1629458221167615	0.3435201384192779	2.398123032554667	1.0786660020202152	0.4355247328414968	2.1370803929804625	0.8526305596847817	0.3408923544391299	1.3760822756704778	1.2249740191834166	0.17344734319266297	1.7912794954791134	1.0847168566638377	0.17229974022429198	2.0621737561825757	0.8236700613028117	0.17217293176880996	2.449319347662337	1.1832404990938679	0.1718833245373089	2.3154650049929058	1.0373857443142334	0.09915551994842542	2.064786430344867	0.7113596396312309	0.1839589570899051	0.6567043081538768	1.1266885591879783	0.36267625626439864	0.32113823629132554	1.3564773650573165	0.4027522554946519	0.5449916719779847	1.582616236461406	0.402379348728203	0.7415079440852221	1.1003252070889948	0.5347537449520205	1.0878548405762116	1.1670348346623698	0.5845347505403736	1.401644555431554	1.467136456183869	0.42039046461527074	0.7204479841564029	1.1361133172456521	0.1656480579659912	1.083639541339189	1.2119729362405223	0.07855435753375108	1.4372050032663988	1.618132782548922	0.2705069481948589
7	0.11666666666666667	1.370820929798305	1.1687188522045668	0.45050363449184117	1.8049916682266978	1.0754163767039528	0.4412490557231562	2.152066796586644	0.9300403692164668	0.3544942617413894	2.450597406645005	1.167620924339221	0.34294670017474316	2.3993157684603963	1.0818098580569673	0.4353118661627474	2.1465441703323096	0.8689876895139848	0.3378072462594231	1.3765014780006615	1.2259899549621116	0.17312270432827095	1.791663637161139	1.0866591917429596	0.17220212532399717	2.0788418860523974	0.861404893786118	0.17848471880831557	2.4510995876872284	1.1880633278593424	0.17142473996888902	2.309688943238347	1.0396861598972171	0.0980096152927498	2.062123587269615	0.7142185296108365	0.1845587546885771	0.6570277759910313	1.126097315938543	0.36257688965268936	0.32136451907695934	1.3544757886349077	0.40304326974577936	0.5544231647014003	1.5802797193424523	0.4020272847909612	0.7459793435444536	1.135381479093819	0.5439884635938872	1.0878246197969077	1.1668338813012467	0.584668829647926	1.3919855931578098	1.4478171398468815	0.42336084909685723	0.7203713934310614	1.1370081642327035	0.16559109405001465	1.0813318048118263	1.2203805940706876	0.0782682863563482	1.4372951853770972	1.6194911912748127	0.2703608715658756
8	0.13333333333333333	1.37071613826298	1.1686860623463344	0.45064449644560506	1.8108520057632795	1.0763790198353655	0.4422557001411294	2.1518427338091786	0.9299997817504739	0.3546013885756352	2.4502090317579284	1.1666509586101312	0.3435329097632412	2.3995500744462217	1.0821790455365226	0.43545793067093597	2.1458429636808543	0.8675602875467766	0.3380654773058541	1.3761500116639451	1.2254854248952554	0.17331521155903032	1.7886137449779609	1.0901184017602759	0.17271961844322364	2.059314449432972	0.8270043855838428	0.1742991057782868	2.4430132271052996	1.1842778026195537	0.17213616123598255	2.308654198579423	1.0389209545434688	0.09983622382111411	2.062225121046262	0.7133526321155577	0.1844869061420223	0.6569178571334838	1.1267884034463267	0.36249045184522477	0.32068451137058795	1.3573055148449047	0.4033790547626385	0.5448669625967617	1.5837630485509577	0.40224156879405276	0.7414754467814453	1.1015845629741836	0.5346057009861759	1.087719248832224	1.1652220755529126	0.5848615810844151	1.3920505436602908	1.449085179460282	0.4235267337558772	0.7205141533476843	1.136407958058756	0.16547962471687086	1.0815149352381817	1.2208245041361052	0.07823109539726367	1.4374379377051247	1.6213913761341219	0.2703862738433301
9	0.15	1.3833515595553907	1.1737012846087616	0.4504622321952236	1.8090271091207017	1.0753357681306568	0.43979649958441946	2.155665738765207	0.9296483299158376	0.35372679578413646	2.453341787487266	1.1646943740802456	0.34156419707304037	2.4030866917939115	1.081099164879066	0.4339706700383613	2.147023341370473	0.8687088704827909	0.33756218147764755	1.3829540173685162	1.2281825824783157	0.1723250061013287	1.7901324107488295	1.0931037798401444	0.17197506545229993	2.0618662483247645	0.8227368630774249	0.1738096351652552	2.4653703449639353	1.2106301425580717	0.16831736502585207	2.3174027662465932	1.0441175805103642	0.09848993475782382	2.0586400674616305	0.7096980959995471	0.18469996468985844	0.6567638509531936	1.1265947614190388	0.36263731223894946	0.3208920413842199	1.3546005230953766	0.4038141806830021	0.5505751645643572	1.587956147960933	0.40271877780319326	0.74156903286833	1.100802856795271	0.5346420008303541	1.0879141260055132	1.1664989961878103	0.5847101002816917	1.3921700814427627	1.4494602082510872	0.423422130330521	0.7205631865678175	1.1361270465088757	0.16542963489685508	1.0831585942985285	1.2251747057730855	0.07953616348097117	1.4380449344699728	1.6234031692439814	0.2698047007281271
